Coordinates
version=1
nRows=9
nColumns=63
inDegrees=yes

Units are S.I. units (second, meters, Newtons, ...)
If the header above contains a line with 'inDegrees', this indicates whether rotational values are in degrees (yes) or radians (no).

endheader
time	pelvis_tilt	pelvis_list	pelvis_rotation	pelvis_tx	pelvis_ty	pelvis_tz	hip_flexion_r	hip_adduction_r	hip_rotation_r	knee_angle_r	knee_angle_r_beta	ankle_angle_r	subtalar_angle_r	mtp_angle_r	hip_flexion_l	hip_adduction_l	hip_rotation_l	knee_angle_l	knee_angle_l_beta	ankle_angle_l	subtalar_angle_l	mtp_angle_l	L5_S1_Flex_Ext	L5_S1_Lat_Bending	L5_S1_axial_rotation	L4_L5_Flex_Ext	L4_L5_Lat_Bending	L4_L5_axial_rotation	L3_L4_Flex_Ext	L3_L4_Lat_Bending	L3_L4_axial_rotation	L2_L3_Flex_Ext	L2_L3_Lat_Bending	L2_L3_axial_rotation	L1_L2_Flex_Ext	L1_L2_Lat_Bending	L1_L2_axial_rotation	L1_T12_Flex_Ext	L1_T12_Lat_Bending	L1_T12_axial_rotation	Abs_r3	Abs_r2	Abs_r1	Abs_t1	Abs_t2	neck_flexion	neck_bending	neck_rotation	arm_flex_r	arm_add_r	arm_rot_r	elbow_flex_r	pro_sup_r	wrist_flex_r	wrist_dev_r	arm_flex_l	arm_add_l	arm_rot_l	elbow_flex_l	pro_sup_l	wrist_flex_l	wrist_dev_l
      7.50000000	    -62.09908664	     -0.44994682	     -6.11737146	     -0.29827314	      1.12804136	      0.05312999	    120.09480003	     -1.51972906	     -3.66328335	    106.92397936	      1.86617549	     24.11436469	      0.88671280	      0.00000000	     88.24304238	    -10.35214571	     -7.33382065	     35.46601100	      0.61899866	      1.22660634	      6.35512132	      0.00000000	     -0.09896836	      0.57145860	      1.11668432	     -0.18379413	      0.76003994	      1.18647709	     -0.16259511	      1.38944444	      1.18647709	     -0.11311093	      1.38944444	      0.97709878	     -0.09190202	      1.16531838	      0.90730601	     -0.05655052	      0.88518937	      0.83751324	     -0.70692107	      6.46445398	      6.21066319	      0.00000000	      0.00000000	      0.00000000	      0.00000000	      0.00000000	     63.20066723	     -8.66393893	      3.25471460	     41.18768684	     59.84719407	      0.00000000	      5.00000012	     59.91042071	     -5.45851673	     -3.30978999	     43.35290074	     59.64300524	      0.00000000	      5.00000012
      7.50800000	    -62.15644362	     -0.96431603	     -6.53771393	     -0.29819448	      1.12763612	      0.05343197	    120.55548373	     -1.32184482	     -4.54494565	    106.37306573	      1.85656023	     25.39677522	      0.07854135	      0.00000000	     88.20601609	    -11.02774337	     -6.98878813	     36.60711333	      0.63891466	      1.50436087	      6.53166825	      0.00000000	     -0.09617425	      0.64591760	      1.19911235	     -0.17860521	      0.85907041	      1.27405687	     -0.15800468	      1.57048406	      1.27405687	     -0.10991756	      1.57048406	      1.04922331	     -0.08930741	      1.31715517	      0.97427878	     -0.05495397	      1.00052637	      0.89933426	     -0.68696308	      7.30674910	      6.66910316	      0.00000000	      0.00000000	      0.00000000	      0.00000000	      0.00000000	     63.15990659	     -9.00290361	      3.64050042	     41.54578378	     59.89546996	      0.00000000	      5.00000012	     59.71482006	     -5.40598750	     -3.27277711	     43.50660030	     59.64263767	      0.00000000	      5.00000012
      7.51700000	    -62.17722365	     -1.39692772	     -6.77735753	     -0.29822411	      1.12723904	      0.05357923	    121.04573061	     -1.25959496	     -5.24064630	    105.75757504	      1.84581789	     25.68431694	     -0.83052184	      0.00000000	     88.17727316	    -11.47820552	     -6.42056041	     37.83541349	      0.66035254	      1.96747567	      6.81113862	      0.00000000	     -0.09650367	      0.70890526	      1.24579607	     -0.17921696	      0.94284400	      1.32365833	     -0.15854587	      1.72363225	      1.32365833	     -0.11029404	      1.72363225	      1.09007157	     -0.08961330	      1.44559961	      1.01220931	     -0.05514219	      1.09809425	      0.93434706	     -0.68931603	      8.01927810	      6.92874403	      0.00000000	      0.00000000	      0.00000000	      0.00000000	      0.00000000	     63.24952044	     -9.28168883	      4.14615702	     41.61477787	     59.99302050	      0.00000000	      5.00000012	     59.58944176	     -5.35890307	     -3.32545945	     43.50084022	     59.65847962	      0.00000000	      5.00000012
      7.52500000	    -62.19393187	     -1.64633212	     -6.94915612	     -0.29833953	      1.12689214	      0.05386756	    121.46208873	     -1.16525233	     -5.78552518	    104.93706281	      1.83149725	     26.05313405	     -1.77785035	      0.00000000	     88.20455641	    -11.86201371	     -6.04611679	     39.22164058	      0.68454677	      2.36316096	      6.76319629	      0.00000000	     -0.09610746	      0.74580286	      1.28041194	     -0.17848117	      0.99191780	      1.36043769	     -0.15789495	      1.81334507	      1.36043769	     -0.10984122	      1.81334507	      1.12036045	     -0.08924539	      1.52084119	      1.04033470	     -0.05491580	      1.15524863	      0.96030896	     -0.68648600	      8.43667111	      7.12126710	      0.00000000	      0.00000000	      0.00000000	      0.00000000	      0.00000000	     63.26953401	     -9.38939473	      4.23393103	     41.73208854	     60.02527856	      0.00000000	      5.00000012	     59.52977658	     -5.39736197	     -3.19303419	     43.48665673	     59.68914993	      0.00000000	      5.00000012
      7.53300000	    -62.20268760	     -1.86978948	     -7.09918664	     -0.29845430	      1.12660108	      0.05416555	    121.78249351	     -1.08256700	     -6.33431369	    103.95004345	      1.81427052	     26.25809850	     -2.92371733	      0.00000000	     88.33753810	    -12.20098131	     -5.53057161	     40.83441499	      0.71269499	      2.83511062	      6.58356966	      0.00000000	     -0.09580937	      0.77730752	      1.31342962	     -0.17792757	      1.03381900	      1.39551898	     -0.15740521	      1.88994550	      1.39551898	     -0.10950053	      1.88994550	      1.14925092	     -0.08896858	      1.58508549	      1.06716157	     -0.05474547	      1.20404935	      0.98507222	     -0.68435673	      8.79305811	      7.30490154	      0.00000000	      0.00000000	      0.00000000	      0.00000000	      0.00000000	     63.25797967	     -9.47624022	      4.19139097	     41.78513139	     60.03951168	      0.00000000	      5.00000012	     59.51315853	     -5.46693063	     -2.99135986	     43.46459584	     59.72660896	      0.00000000	      5.00000012
      7.54200000	    -62.17815422	     -1.84748630	     -6.92943820	     -0.29860908	      1.12631902	      0.05416804	    122.07363108	     -1.17243673	     -6.44317212	    102.90839262	      1.79609028	     26.43657669	     -3.55698379	      0.00000000	     88.48575230	    -12.18217294	     -5.17379628	     42.57211602	      0.74302359	      3.18208626	      6.42073994	      0.00000000	     -0.09506245	      0.77580116	      1.28345183	     -0.17654047	      1.03181554	      1.36366757	     -0.15617809	      1.88628294	      1.36366757	     -0.10864687	      1.88628294	      1.12302035	     -0.08827499	      1.58201373	      1.04280461	     -0.05431868	      1.20171600	      0.96258887	     -0.67902154	      8.77601789	      7.13817403	      0.00000000	      0.00000000	      0.00000000	      0.00000000	      0.00000000	     63.21646774	     -9.45088044	      4.15221497	     41.84893387	     60.04036333	      0.00000000	      5.00000012	     59.52789712	     -5.56430164	     -2.90954825	     43.43083178	     59.74176416	      0.00000000	      5.00000012
      7.55000000	    -62.23488410	     -2.24909807	     -7.23624248	     -0.29885115	      1.12649853	      0.05439662	    122.09928321	     -1.06223008	     -7.41409679	    101.38544625	      1.76950985	     26.13374237	     -5.55764087	      0.00000000	     88.86866477	    -12.57980558	     -4.18841021	     44.46887430	      0.77612827	      3.77668430	      5.80224377	      0.00000000	     -0.09660996	      0.83357073	      1.35000475	     -0.17941436	      1.10864907	      1.43438004	     -0.15872051	      2.02674386	      1.43438004	     -0.11041553	      2.02674386	      1.18125415	     -0.08971201	      1.69981742	      1.09687886	     -0.05520293	      1.29120105	      1.01250356	     -0.69007531	      9.42951877	      7.50832140	      0.00000000	      0.00000000	      0.00000000	      0.00000000	      0.00000000	     63.30150993	     -9.51569553	      3.95125428	     41.87908178	     60.04135886	      0.00000000	      5.00000012	     59.51676478	     -5.60266792	     -2.56528775	     43.41274369	     59.79900760	      0.00000000	      5.00000012
      7.55800000	    -62.26253017	     -2.36177932	     -7.16821201	     -0.29910592	      1.12673288	      0.05418963	    122.09343589	     -1.15174191	     -7.83356295	     99.82341897	      1.74224733	     25.96057782	     -6.81165423	      0.00000000	     89.25343414	    -12.53954759	     -3.45426282	     46.44714248	      0.81065556	      4.15216735	      5.26228663	      0.00000000	     -0.09718563	      0.85306776	      1.34382534	     -0.18048343	      1.13458012	      1.42781443	     -0.15966627	      2.07414894	      1.42781443	     -0.11107345	      2.07414894	      1.17584717	     -0.09024657	      1.73957577	      1.09185809	     -0.05553187	      1.32140195	      1.00786901	     -0.69418721	      9.65007307	      7.47395341	      0.00000000	      0.00000000	      0.00000000	      0.00000000	      0.00000000	     63.36161319	     -9.54067282	      3.91596596	     41.91590329	     60.01984650	      0.00000000	      5.00000012	     59.52311131	     -5.64160074	     -2.48884540	     43.42890462	     59.78161866	      0.00000000	      5.00000012
      7.56700000	    -62.27826501	     -2.27226317	     -6.85605336	     -0.29939174	      1.12703753	      0.05369580	    122.03899310	     -1.35720309	     -7.84782866	     98.18674039	      1.71368190	     25.93644352	     -7.24482217	      0.00000000	     89.65737069	    -12.22450633	     -2.95002408	     48.50041792	      0.84649198	      4.51968590	      4.94004402	      0.00000000	     -0.09683318	      0.84359254	      1.29303631	     -0.17982889	      1.12197808	      1.37385108	     -0.15908722	      2.05111090	      1.37385108	     -0.11067064	      2.05111090	      1.13140677	     -0.08991929	      1.72025391	      1.05059200	     -0.05533048	      1.30672485	      0.96977723	     -0.69166969	      9.54288754	      7.19148005	      0.00000000	      0.00000000	      0.00000000	      0.00000000	      0.00000000	     63.35513394	     -9.54951560	      3.89374396	     42.00591320	     60.02445996	      0.00000000	      5.00000012	     59.58256668	     -5.69024288	     -2.47834191	     43.46543932	     59.78793082	      0.00000000	      5.00000012
